<?xml version="1.0" encoding="utf-8"?>
<!-- Generator: Adobe Illustrator 22.1.0, SVG Export Plug-In . SVG Version: 6.00 Build 0)  -->
<svg version="1.0" id="Layer_1" xmlns="http://www.w3.org/2000/svg" xmlns:xlink="http://www.w3.org/1999/xlink" x="0px" y="0px"
	 width="128px" height="128px" viewBox="0 0 128 128" enable-background="new 0 0 128 128" xml:space="preserve">
<g>
	<defs>
		<rect id="SVGID_1_" width="128" height="128"/>
	</defs>
	<clipPath id="SVGID_2_">
		<use xlink:href="#SVGID_1_"  overflow="visible"/>
	</clipPath>
	
		<line opacity="0.1" clip-path="url(#SVGID_2_)" fill="#FFFFFF" stroke="#FF6403" stroke-miterlimit="10" x1="0" y1="128" x2="128" y2="0"/>
	
		<line opacity="0.1" clip-path="url(#SVGID_2_)" fill="#FFFFFF" stroke="#FF6403" stroke-miterlimit="10" x1="0" y1="112" x2="128" y2="-16"/>
	
		<line opacity="0.1" clip-path="url(#SVGID_2_)" fill="#FFFFFF" stroke="#FF6403" stroke-miterlimit="10" x1="0" y1="96" x2="128" y2="-32"/>
	
		<line opacity="0.1" clip-path="url(#SVGID_2_)" fill="#FFFFFF" stroke="#FF6403" stroke-miterlimit="10" x1="0" y1="80" x2="128" y2="-48"/>
	
		<line opacity="0.1" clip-path="url(#SVGID_2_)" fill="#FFFFFF" stroke="#FF6403" stroke-miterlimit="10" x1="0" y1="64" x2="128" y2="-64"/>
	
		<line opacity="0.1" clip-path="url(#SVGID_2_)" fill="#FFFFFF" stroke="#FF6403" stroke-miterlimit="10" x1="0" y1="48" x2="128" y2="-80"/>
	
		<line opacity="0.1" clip-path="url(#SVGID_2_)" fill="#FFFFFF" stroke="#FF6403" stroke-miterlimit="10" x1="0" y1="32" x2="128" y2="-96"/>
	
		<line opacity="0.1" clip-path="url(#SVGID_2_)" fill="#FFFFFF" stroke="#FF6403" stroke-miterlimit="10" x1="0" y1="16" x2="128" y2="-112"/>
	
		<line opacity="0.1" clip-path="url(#SVGID_2_)" fill="#FFFFFF" stroke="#FF6403" stroke-miterlimit="10" x1="0" y1="0" x2="128" y2="-128"/>
	
		<line opacity="0.1" clip-path="url(#SVGID_2_)" fill="#FFFFFF" stroke="#FF6403" stroke-miterlimit="10" x1="0" y1="256" x2="128" y2="128"/>
	
		<line opacity="0.1" clip-path="url(#SVGID_2_)" fill="#FFFFFF" stroke="#FF6403" stroke-miterlimit="10" x1="0" y1="240" x2="128" y2="112"/>
	
		<line opacity="0.1" clip-path="url(#SVGID_2_)" fill="#FFFFFF" stroke="#FF6403" stroke-miterlimit="10" x1="0" y1="224" x2="128" y2="96"/>
	
		<line opacity="0.1" clip-path="url(#SVGID_2_)" fill="#FFFFFF" stroke="#FF6403" stroke-miterlimit="10" x1="0" y1="208" x2="128" y2="80"/>
	
		<line opacity="0.1" clip-path="url(#SVGID_2_)" fill="#FFFFFF" stroke="#FF6403" stroke-miterlimit="10" x1="0" y1="192" x2="128" y2="64"/>
	
		<line opacity="0.1" clip-path="url(#SVGID_2_)" fill="#FFFFFF" stroke="#FF6403" stroke-miterlimit="10" x1="0" y1="176" x2="128" y2="48"/>
	
		<line opacity="0.1" clip-path="url(#SVGID_2_)" fill="#FFFFFF" stroke="#FF6403" stroke-miterlimit="10" x1="0" y1="160" x2="128" y2="32"/>
	
		<line opacity="0.1" clip-path="url(#SVGID_2_)" fill="#FFFFFF" stroke="#FF6403" stroke-miterlimit="10" x1="0" y1="144" x2="128" y2="16"/>
	<g opacity="0.1" clip-path="url(#SVGID_2_)">
		<line fill="#FFFFFF" stroke="#FF6403" stroke-miterlimit="10" x1="0" y1="120" x2="128" y2="-8"/>
		<line fill="#FFFFFF" stroke="#FF6403" stroke-miterlimit="10" x1="0" y1="104" x2="128" y2="-24"/>
		<line fill="#FFFFFF" stroke="#FF6403" stroke-miterlimit="10" x1="0" y1="88" x2="128" y2="-40"/>
		<line fill="#FFFFFF" stroke="#FF6403" stroke-miterlimit="10" x1="0" y1="72" x2="128" y2="-56"/>
		<line fill="#FFFFFF" stroke="#FF6403" stroke-miterlimit="10" x1="0" y1="56" x2="128" y2="-72"/>
		<line fill="#FFFFFF" stroke="#FF6403" stroke-miterlimit="10" x1="0" y1="40" x2="128" y2="-88"/>
		<line fill="#FFFFFF" stroke="#FF6403" stroke-miterlimit="10" x1="0" y1="24" x2="128" y2="-104"/>
		<line fill="#FFFFFF" stroke="#FF6403" stroke-miterlimit="10" x1="0" y1="8" x2="128" y2="-120"/>
		<line fill="#FFFFFF" stroke="#FF6403" stroke-miterlimit="10" x1="0" y1="264" x2="128" y2="136"/>
		<line fill="#FFFFFF" stroke="#FF6403" stroke-miterlimit="10" x1="0" y1="248" x2="128" y2="120"/>
		<line fill="#FFFFFF" stroke="#FF6403" stroke-miterlimit="10" x1="0" y1="232" x2="128" y2="104"/>
		<line fill="#FFFFFF" stroke="#FF6403" stroke-miterlimit="10" x1="0" y1="216" x2="128" y2="88"/>
		<line fill="#FFFFFF" stroke="#FF6403" stroke-miterlimit="10" x1="0" y1="200" x2="128" y2="72"/>
		<line fill="#FFFFFF" stroke="#FF6403" stroke-miterlimit="10" x1="0" y1="184" x2="128" y2="56"/>
		<line fill="#FFFFFF" stroke="#FF6403" stroke-miterlimit="10" x1="0" y1="168" x2="128" y2="40"/>
		<line fill="#FFFFFF" stroke="#FF6403" stroke-miterlimit="10" x1="0" y1="152" x2="128" y2="24"/>
		<line fill="#FFFFFF" stroke="#FF6403" stroke-miterlimit="10" x1="0" y1="136" x2="128" y2="8"/>
	</g>
	<g opacity="0.1" clip-path="url(#SVGID_2_)">
		<g>
			<line fill="#FFFFFF" stroke="#FF6403" stroke-miterlimit="10" x1="112" y1="128" x2="-16" y2="0"/>
			<line fill="#FFFFFF" stroke="#FF6403" stroke-miterlimit="10" x1="96" y1="128" x2="-32" y2="0"/>
			<line fill="#FFFFFF" stroke="#FF6403" stroke-miterlimit="10" x1="80" y1="128" x2="-48" y2="0"/>
			<line fill="#FFFFFF" stroke="#FF6403" stroke-miterlimit="10" x1="64" y1="128" x2="-64" y2="0"/>
			<line fill="#FFFFFF" stroke="#FF6403" stroke-miterlimit="10" x1="48" y1="128" x2="-80" y2="0"/>
			<line fill="#FFFFFF" stroke="#FF6403" stroke-miterlimit="10" x1="32" y1="128" x2="-96" y2="0"/>
			<line fill="#FFFFFF" stroke="#FF6403" stroke-miterlimit="10" x1="16" y1="128" x2="-112" y2="0"/>
			<line fill="#FFFFFF" stroke="#FF6403" stroke-miterlimit="10" x1="0" y1="128" x2="-128" y2="0"/>
			<line fill="#FFFFFF" stroke="#FF6403" stroke-miterlimit="10" x1="256" y1="128" x2="128" y2="0"/>
			<line fill="#FFFFFF" stroke="#FF6403" stroke-miterlimit="10" x1="240" y1="128" x2="112" y2="0"/>
			<line fill="#FFFFFF" stroke="#FF6403" stroke-miterlimit="10" x1="224" y1="128" x2="96" y2="0"/>
			<line fill="#FFFFFF" stroke="#FF6403" stroke-miterlimit="10" x1="208" y1="128" x2="80" y2="0"/>
			<line fill="#FFFFFF" stroke="#FF6403" stroke-miterlimit="10" x1="192" y1="128" x2="64" y2="0"/>
			<line fill="#FFFFFF" stroke="#FF6403" stroke-miterlimit="10" x1="176" y1="128" x2="48" y2="0"/>
			<line fill="#FFFFFF" stroke="#FF6403" stroke-miterlimit="10" x1="160" y1="128" x2="32" y2="0"/>
			<line fill="#FFFFFF" stroke="#FF6403" stroke-miterlimit="10" x1="144" y1="128" x2="16" y2="0"/>
			<line fill="#FFFFFF" stroke="#FF6403" stroke-miterlimit="10" x1="128" y1="128" x2="0" y2="0"/>
		</g>
		<g>
			<line fill="#FFFFFF" stroke="#FF6403" stroke-miterlimit="10" x1="120" y1="128" x2="-8" y2="0"/>
			<line fill="#FFFFFF" stroke="#FF6403" stroke-miterlimit="10" x1="104" y1="128" x2="-24" y2="0"/>
			<line fill="#FFFFFF" stroke="#FF6403" stroke-miterlimit="10" x1="88" y1="128" x2="-40" y2="0"/>
			<line fill="#FFFFFF" stroke="#FF6403" stroke-miterlimit="10" x1="72" y1="128" x2="-56" y2="0"/>
			<line fill="#FFFFFF" stroke="#FF6403" stroke-miterlimit="10" x1="56" y1="128" x2="-72" y2="0"/>
			<line fill="#FFFFFF" stroke="#FF6403" stroke-miterlimit="10" x1="40" y1="128" x2="-88" y2="0"/>
			<line fill="#FFFFFF" stroke="#FF6403" stroke-miterlimit="10" x1="24" y1="128" x2="-104" y2="0"/>
			<line fill="#FFFFFF" stroke="#FF6403" stroke-miterlimit="10" x1="8" y1="128" x2="-120" y2="0"/>
			<line fill="#FFFFFF" stroke="#FF6403" stroke-miterlimit="10" x1="264" y1="128" x2="136" y2="0"/>
			<line fill="#FFFFFF" stroke="#FF6403" stroke-miterlimit="10" x1="248" y1="128" x2="120" y2="0"/>
			<line fill="#FFFFFF" stroke="#FF6403" stroke-miterlimit="10" x1="232" y1="128" x2="104" y2="0"/>
			<line fill="#FFFFFF" stroke="#FF6403" stroke-miterlimit="10" x1="216" y1="128" x2="88" y2="0"/>
			<line fill="#FFFFFF" stroke="#FF6403" stroke-miterlimit="10" x1="200" y1="128" x2="72" y2="0"/>
			<line fill="#FFFFFF" stroke="#FF6403" stroke-miterlimit="10" x1="184" y1="128" x2="56" y2="0"/>
			<line fill="#FFFFFF" stroke="#FF6403" stroke-miterlimit="10" x1="168" y1="128" x2="40" y2="0"/>
			<line fill="#FFFFFF" stroke="#FF6403" stroke-miterlimit="10" x1="152" y1="128" x2="24" y2="0"/>
			<line fill="#FFFFFF" stroke="#FF6403" stroke-miterlimit="10" x1="136" y1="128" x2="8" y2="0"/>
		</g>
	</g>
</g>
<g>
</g>
<g>
</g>
<g>
</g>
<g>
</g>
<g>
</g>
</svg>
